<svg width="100" height="100" viewBox="0 0 100 100" fill="none" xmlns="http://www.w3.org/2000/svg">
<path d="M18.7435 20.8335C13.3127 20.7422 10.707 21.8123 9.26229 25.5941C8.38508 27.8903 8.33337 30.4032 8.33337 32.8615V75C8.78267 77.645 9.53304 79.3996 11.4264 80.8338C14.5126 83.1713 18.6132 83.4908 22.4221 84.1804C30.7738 85.6929 38.0383 88.2546 49.9738 91.6667M49.9738 91.6667C61.0271 88.2475 68.9313 85.8754 76.3388 84.5092C82.2634 83.4163 89.7992 82.6796 91.133 76.8013C91.483 75.2579 91.6434 73.3221 91.6142 70.8333V38.6093C91.6142 32.342 92.5617 23.9383 86.8446 21.3786C85.4159 20.7389 83.6075 20.6281 81.2042 20.8335M49.9738 91.6667V62.5" stroke="white" stroke-width="2.5" stroke-linecap="round" stroke-linejoin="round"/>
<path d="M49.9704 50.0002C61.4692 50.0002 70.7908 40.6727 70.7908 29.1668C70.7908 17.6609 61.4692 8.3335 49.9704 8.3335M49.9704 50.0002C38.4719 50.0002 29.1504 40.6727 29.1504 29.1668C29.1504 17.6609 38.4719 8.3335 49.9704 8.3335M49.9704 50.0002C54.5704 50.0002 58.2988 40.6727 58.2988 29.1668C58.2988 17.6609 54.5704 8.3335 49.9704 8.3335M49.9704 50.0002C45.3708 50.0002 41.6426 40.6727 41.6426 29.1668C41.6426 17.6609 45.3708 8.3335 49.9704 8.3335" stroke="white" stroke-width="2.5" stroke-linecap="round" stroke-linejoin="round"/>
</svg>
