<svg width="100" height="100" viewBox="0 0 100 100" fill="none" xmlns="http://www.w3.org/2000/svg">
<path d="M33.3334 29.1715H69.7917C78.5696 29.1715 82.9588 29.1715 86.1113 31.2787C87.4763 32.191 88.6484 33.3632 89.56 34.7285C91.5817 37.7549 91.6634 41.92 91.6667 50.0108V54.1787M50 29.1715L47.3609 23.8913C45.1742 19.5169 43.1759 15.1138 38.3303 13.2961C36.208 12.5 33.7835 12.5 28.9345 12.5C21.3659 12.5 17.5816 12.5 14.742 14.0851C12.7178 15.215 11.0476 16.8857 9.91804 18.9105C8.33337 21.7509 8.33337 25.5363 8.33337 33.1071V45.8429C8.33337 65.4904 8.33337 75.3142 14.4353 81.4179C19.6054 86.5896 27.4454 87.3796 41.6667 87.5" stroke="white" stroke-width="2.5" stroke-linecap="round"/>
<path d="M79.1666 77.0833L85.1887 81.0979C88.0404 82.9992 89.4662 83.9496 90.5662 83.3608C91.6666 82.7721 91.6666 81.0583 91.6666 77.6313V72.3687C91.6666 68.9417 91.6666 67.2279 90.5662 66.6392C89.4662 66.0504 88.0404 67.0008 85.1887 68.9021L79.1666 72.9167M79.1666 77.0833V72.9167M79.1666 77.0833C79.1666 80.9775 79.1666 82.9246 78.3291 84.375C77.7808 85.325 76.9916 86.1142 76.0416 86.6625C74.5912 87.5 72.6441 87.5 68.75 87.5H66.6666C60.7741 87.5 57.8279 87.5 55.997 85.6696C54.1666 83.8387 54.1666 80.8925 54.1666 75C54.1666 69.1075 54.1666 66.1612 55.997 64.3304C57.8279 62.5 60.7741 62.5 66.6666 62.5H68.75C72.6441 62.5 74.5912 62.5 76.0416 63.3375C76.9916 63.8858 77.7808 64.675 78.3291 65.625C79.1666 67.0754 79.1666 69.0225 79.1666 72.9167" stroke="white" stroke-width="2.5" stroke-linejoin="round"/>
</svg>
