<svg width="100" height="100" viewBox="0 0 100 100" fill="none" xmlns="http://www.w3.org/2000/svg">
<path d="M47.9167 33.3333H84.15C86.7534 33.3333 88.055 33.3333 89.008 33.7534C93.2234 35.612 91.3388 40.2947 90.6296 43.6599C90.5021 44.2645 90.0875 44.7791 89.5067 45.0549C87.0971 46.1983 85.4092 48.367 84.9663 50.8891L82.4971 64.9491C81.4109 71.1353 81.0396 79.9762 75.6184 84.3341C71.6409 87.4999 65.9101 87.4999 54.448 87.4999H45.5521C34.0901 87.4999 28.3592 87.4999 24.3817 84.3341C18.9606 79.9758 18.5891 71.1353 17.5028 64.9491L15.0337 50.8891C14.5908 48.367 12.9031 46.1983 10.4934 45.0549C9.91238 44.7791 9.49805 44.2645 9.37063 43.6599C8.66147 40.2947 6.77672 35.612 10.9922 33.7534C11.9452 33.3333 13.2468 33.3333 15.8499 33.3333H31.25" stroke="white" stroke-width="2.5" stroke-linecap="round"/>
<path d="M58.3333 50H41.6666" stroke="white" stroke-width="2.5" stroke-linecap="round" stroke-linejoin="round"/>
<path d="M27.0834 45.8333L41.6667 12.5M62.5 12.5L72.9167 33.3333" stroke="white" stroke-width="2.5" stroke-linecap="round"/>
</svg>
