<svg width="1920" height="11088" viewBox="0 0 1920 11088" fill="none" xmlns="http://www.w3.org/2000/svg">
	<g opacity="0.5">
	<g opacity="0.4">
	<path d="M-156.457 670.604C-264.76 681.218 -416.383 637.465 -156.457 377.54C168.449 52.6334 881.948 -335.959 308.774 530.278C-149.765 1223.27 1510.53 666.466 2398 301.441C726.619 1187.86 1556.95 2122.97 2181.03 2479.72" stroke="white" stroke-width="5"/>
	<path d="M-200.714 721.337C-309.016 731.951 -460.639 688.198 -200.714 428.273C124.193 103.366 837.692 -285.226 264.518 581.011C-194.021 1274 1466.28 717.199 2353.74 352.174C682.363 1238.6 1512.69 2173.7 2136.78 2530.45" stroke="white" stroke-width="5"/>
	<path d="M-244.97 772.069C-353.272 782.684 -504.895 738.931 -244.97 479.006C79.9365 154.099 793.436 -234.493 220.262 631.744C-238.278 1324.73 1422.02 767.932 2309.49 402.907C638.107 1289.33 1468.44 2224.43 2092.52 2581.18" stroke="white" stroke-width="5"/>
	<path d="M-289.226 822.802C-397.529 833.417 -549.152 789.664 -289.226 529.739C35.6802 204.832 749.179 -183.761 176.005 682.477C-282.534 1375.47 1377.76 818.665 2265.23 453.639C593.85 1340.06 1424.18 2275.17 2048.27 2631.92" stroke="white" stroke-width="5"/>
	<path d="M-333.483 873.535C-441.785 884.15 -593.408 840.397 -333.483 580.472C-8.5762 255.565 704.923 -133.028 131.749 733.21C-326.79 1426.2 1333.51 869.397 2220.97 504.372C549.594 1390.8 1379.92 2325.9 2004.01 2682.65" stroke="white" stroke-width="5"/>
	<path d="M-379.483 926.604C-487.785 937.218 -639.408 893.465 -379.483 633.54C-54.5762 308.633 658.923 -79.9592 85.7489 786.278C-372.79 1479.27 1287.51 922.466 2174.97 557.441C503.594 1443.86 1333.92 2378.97 1958.01 2735.72" stroke="white" stroke-width="5"/>
	</g>
	<g opacity="0.4">
	<path d="M2176.5 3528.5C1826.17 3381 1208.8 3271.1 1542 4011.5C1958.5 4937 232.499 5162 430.999 4011.5C589.799 3091.1 -80.1676 2768.33 -435.001 2722" stroke="white" stroke-width="5"/>
	<path d="M2176.5 3528.5C1826.17 3381 1208.8 3271.1 1542 4011.5C1958.5 4937 232.499 5162 430.999 4011.5C589.799 3091.1 -80.1676 2768.33 -435.001 2722" stroke="white" stroke-width="5"/>
	<path d="M2176.5 3483.5C1826.17 3336 1208.8 3226.1 1542 3966.5C1958.5 4892 232.499 5117 430.999 3966.5C589.799 3046.1 -80.1676 2723.33 -435.001 2677" stroke="white" stroke-width="5"/>
	<path d="M2176.5 3483.5C1826.17 3336 1208.8 3226.1 1542 3966.5C1958.5 4892 232.499 5117 430.999 3966.5C589.799 3046.1 -80.1676 2723.33 -435.001 2677" stroke="white" stroke-width="5"/>
	<path d="M2176.5 3438.5C1826.17 3291 1208.8 3181.1 1542 3921.5C1958.5 4847 232.499 5072 430.999 3921.5C589.799 3001.1 -80.1676 2678.33 -435.001 2632" stroke="white" stroke-width="5"/>
	<path d="M2176.5 3438.5C1826.17 3291 1208.8 3181.1 1542 3921.5C1958.5 4847 232.499 5072 430.999 3921.5C589.799 3001.1 -80.1676 2678.33 -435.001 2632" stroke="white" stroke-width="5"/>
	<path d="M2176.5 3393.5C1826.17 3246 1208.8 3136.1 1542 3876.5C1958.5 4802 232.499 5027 430.999 3876.5C589.799 2956.1 -80.1676 2633.33 -435.001 2587" stroke="white" stroke-width="5"/>
	<path d="M2176.5 3393.5C1826.17 3246 1208.8 3136.1 1542 3876.5C1958.5 4802 232.499 5027 430.999 3876.5C589.799 2956.1 -80.1676 2633.33 -435.001 2587" stroke="white" stroke-width="5"/>
	<path d="M2176.5 3348.5C1826.17 3201 1208.8 3091.1 1542 3831.5C1958.5 4757 232.499 4982 430.999 3831.5C589.799 2911.1 -80.1676 2588.33 -435.001 2542" stroke="white" stroke-width="5"/>
	<path d="M2176.5 3348.5C1826.17 3201 1208.8 3091.1 1542 3831.5C1958.5 4757 232.499 4982 430.999 3831.5C589.799 2911.1 -80.1676 2588.33 -435.001 2542" stroke="white" stroke-width="5"/>
	<path d="M2176.5 3303.5C1826.17 3156 1208.8 3046.1 1542 3786.5C1958.5 4712 232.499 4937 430.999 3786.5C589.799 2866.1 -80.1676 2543.33 -435.001 2497" stroke="white" stroke-width="5"/>
	<path d="M2176.5 3303.5C1826.17 3156 1208.8 3046.1 1542 3786.5C1958.5 4712 232.499 4937 430.999 3786.5C589.799 2866.1 -80.1676 2543.33 -435.001 2497" stroke="white" stroke-width="5"/>
	</g>
	<g opacity="0.4">
	<path d="M-245.001 4863C349.165 4923.5 1333.3 5257.3 516.499 6108.5C-504.501 7172.5 1406.5 7250 1381 6394C1355.5 5538 2194 7138 2038.5 5520.5C1883 3903 3828.5 5554.5 2479.5 6636C1130.5 7717.5 2517.11 8387.84 887.999 8513C-348.501 8608 187.666 8129.5 -80.501 7639.5C-201.501 6985 -898.401 5423.7 -608.001 5174.5" stroke="white" stroke-width="5"/>
	<path d="M-244.816 4811.27C349.351 4871.77 1333.48 5205.57 516.685 6056.77C-504.315 7120.77 1406.68 7198.27 1381.18 6342.27C1355.68 5486.27 2194.18 7086.27 2038.68 5468.77C1883.18 3851.27 3828.68 5502.77 2479.68 6584.27C1130.68 7665.77 2517.29 8336.11 888.185 8461.27C-348.315 8556.27 187.851 8077.77 -80.3154 7587.77C-201.315 6933.27 -898.216 5371.97 -607.816 5122.77" stroke="white" stroke-width="5"/>
	<path d="M-244.63 4759.55C349.536 4820.05 1333.67 5153.85 516.87 6005.05C-504.13 7069.05 1406.87 7146.55 1381.37 6290.55C1355.87 5434.55 2194.37 7034.55 2038.87 5417.05C1883.37 3799.55 3828.87 5451.05 2479.87 6532.55C1130.87 7614.05 2517.48 8284.38 888.37 8409.55C-348.13 8504.55 188.037 8026.05 -80.1299 7536.05C-201.13 6881.55 -898.03 5320.25 -607.63 5071.05" stroke="white" stroke-width="5"/>
	<path d="M-244.445 4707.82C349.722 4768.32 1333.86 5102.12 517.056 5953.32C-503.944 7017.32 1407.06 7094.82 1381.56 6238.82C1356.06 5382.82 2194.55 6982.82 2039.05 5365.32C1883.55 3747.82 3829.05 5399.32 2480.05 6480.82C1131.05 7562.32 2517.67 8232.66 888.556 8357.82C-347.944 8452.82 188.222 7974.32 -79.9443 7484.32C-200.944 6829.82 -897.845 5268.52 -607.445 5019.32" stroke="white" stroke-width="5"/>
	<path d="M-244.259 4656.1C349.907 4716.6 1334.04 5050.4 517.241 5901.6C-503.759 6965.6 1407.24 7043.1 1381.74 6187.1C1356.24 5331.1 2194.74 6931.1 2039.24 5313.6C1883.74 3696.1 3829.24 5347.6 2480.24 6429.1C1131.24 7510.6 2517.85 8180.93 888.741 8306.1C-347.759 8401.1 188.408 7922.6 -79.7588 7432.6C-200.759 6778.1 -897.659 5216.8 -607.259 4967.6" stroke="white" stroke-width="5"/>
	<path d="M-244.074 4604.37C350.093 4664.87 1334.23 4998.67 517.427 5849.87C-503.573 6913.87 1407.43 6991.37 1381.93 6135.37C1356.43 5279.37 2194.93 6879.37 2039.43 5261.87C1883.93 3644.37 3829.43 5295.87 2480.43 6377.37C1131.43 7458.87 2518.04 8129.21 888.927 8254.37C-347.573 8349.37 188.593 7870.87 -79.5732 7380.87C-200.573 6726.37 -897.474 5165.07 -607.074 4915.87" stroke="white" stroke-width="5"/>
	</g>
	<g opacity="0.4">
	<path d="M-423 9912.22C586.429 9792.58 -71.1991 10320 357.058 10768.2C785.316 11216.5 1428.45 11048.5 1519.9 10768.2C1593.06 10544 2021.78 10296.2 2227 10200.3" stroke="white" stroke-width="5"/>
	<path d="M-423 9912.22C586.429 9792.58 -71.1991 10320 357.058 10768.2C785.316 11216.5 1428.45 11048.5 1519.9 10768.2C1593.06 10544 2021.78 10296.2 2227 10200.3" stroke="white" stroke-width="5"/>
	<path d="M-423 9912.22C586.429 9792.58 -71.1991 10320 357.058 10768.2C785.316 11216.5 1428.45 11048.5 1519.9 10768.2C1593.06 10544 2021.78 10296.2 2227 10200.3" stroke="white" stroke-width="5"/>
	<path d="M-423 9912.22C586.429 9792.58 -71.1991 10320 357.058 10768.2C785.316 11216.5 1428.45 11048.5 1519.9 10768.2C1593.06 10544 2021.78 10296.2 2227 10200.3" stroke="white" stroke-width="5"/>
	</g>
	<g opacity="0.4">
	<path d="M-423 9872.22C586.429 9752.58 -71.1991 10280 357.058 10728.2C785.316 11176.5 1428.45 11008.5 1519.9 10728.2C1593.06 10504 2021.78 10256.2 2227 10160.3" stroke="white" stroke-width="5"/>
	<path d="M-423 9872.22C586.429 9752.58 -71.1991 10280 357.058 10728.2C785.316 11176.5 1428.45 11008.5 1519.9 10728.2C1593.06 10504 2021.78 10256.2 2227 10160.3" stroke="white" stroke-width="5"/>
	<path d="M-423 9872.22C586.429 9752.58 -71.1991 10280 357.058 10728.2C785.316 11176.5 1428.45 11008.5 1519.9 10728.2C1593.06 10504 2021.78 10256.2 2227 10160.3" stroke="white" stroke-width="5"/>
	<path d="M-423 9872.22C586.429 9752.58 -71.1991 10280 357.058 10728.2C785.316 11176.5 1428.45 11008.5 1519.9 10728.2C1593.06 10504 2021.78 10256.2 2227 10160.3" stroke="white" stroke-width="5"/>
	</g>
	<g opacity="0.4">
	<path d="M-423 9832.22C586.429 9712.58 -71.1991 10240 357.058 10688.2C785.316 11136.5 1428.45 10968.5 1519.9 10688.2C1593.06 10464 2021.78 10216.2 2227 10120.3" stroke="white" stroke-width="5"/>
	<path d="M-423 9832.22C586.429 9712.58 -71.1991 10240 357.058 10688.2C785.316 11136.5 1428.45 10968.5 1519.9 10688.2C1593.06 10464 2021.78 10216.2 2227 10120.3" stroke="white" stroke-width="5"/>
	<path d="M-423 9832.22C586.429 9712.58 -71.1991 10240 357.058 10688.2C785.316 11136.5 1428.45 10968.5 1519.9 10688.2C1593.06 10464 2021.78 10216.2 2227 10120.3" stroke="white" stroke-width="5"/>
	<path d="M-423 9832.22C586.429 9712.58 -71.1991 10240 357.058 10688.2C785.316 11136.5 1428.45 10968.5 1519.9 10688.2C1593.06 10464 2021.78 10216.2 2227 10120.3" stroke="white" stroke-width="5"/>
	</g>
	<g opacity="0.4">
	<path d="M-423 9792.22C586.429 9672.58 -71.1991 10200 357.058 10648.2C785.316 11096.5 1428.45 10928.5 1519.9 10648.2C1593.06 10424 2021.78 10176.2 2227 10080.3" stroke="white" stroke-width="5"/>
	<path d="M-423 9792.22C586.429 9672.58 -71.1991 10200 357.058 10648.2C785.316 11096.5 1428.45 10928.5 1519.9 10648.2C1593.06 10424 2021.78 10176.2 2227 10080.3" stroke="white" stroke-width="5"/>
	<path d="M-423 9792.22C586.429 9672.58 -71.1991 10200 357.058 10648.2C785.316 11096.5 1428.45 10928.5 1519.9 10648.2C1593.06 10424 2021.78 10176.2 2227 10080.3" stroke="white" stroke-width="5"/>
	<path d="M-423 9792.22C586.429 9672.58 -71.1991 10200 357.058 10648.2C785.316 11096.5 1428.45 10928.5 1519.9 10648.2C1593.06 10424 2021.78 10176.2 2227 10080.3" stroke="white" stroke-width="5"/>
	</g>
	<g opacity="0.4">
	<path d="M-423 9752.22C586.429 9632.58 -71.1991 10160 357.058 10608.2C785.316 11056.5 1428.45 10888.5 1519.9 10608.2C1593.06 10384 2021.78 10136.2 2227 10040.3" stroke="white" stroke-width="5"/>
	<path d="M-423 9752.22C586.429 9632.58 -71.1991 10160 357.058 10608.2C785.316 11056.5 1428.45 10888.5 1519.9 10608.2C1593.06 10384 2021.78 10136.2 2227 10040.3" stroke="white" stroke-width="5"/>
	<path d="M-423 9752.22C586.429 9632.58 -71.1991 10160 357.058 10608.2C785.316 11056.5 1428.45 10888.5 1519.9 10608.2C1593.06 10384 2021.78 10136.2 2227 10040.3" stroke="white" stroke-width="5"/>
	<path d="M-423 9752.22C586.429 9632.58 -71.1991 10160 357.058 10608.2C785.316 11056.5 1428.45 10888.5 1519.9 10608.2C1593.06 10384 2021.78 10136.2 2227 10040.3" stroke="white" stroke-width="5"/>
	</g>
	<path opacity="0.4" d="M-423 9952.22C586.429 9832.58 -71.1991 10360 357.058 10808.2C785.316 11256.5 1428.45 11088.5 1519.9 10808.2C1593.06 10584 2021.78 10336.2 2227 10240.3" stroke="white" stroke-width="5"/>
	</g>
	</svg>
	